<mxfile host="app.diagrams.net" agent="Mozilla/5.0 (Windows NT 10.0; Win64; x64) AppleWebKit/537.36 (KHTML, like Gecko) Chrome/133.0.0.0 Safari/537.36" version="26.0.14">
  <diagram name="Page-1" id="9f46799a-70d6-7492-0946-bef42562c5a5">
    <mxGraphModel dx="1958" dy="2477" grid="0" gridSize="10" guides="1" tooltips="1" connect="1" arrows="1" fold="1" page="0" pageScale="1" pageWidth="1100" pageHeight="850" background="none" math="0" shadow="0">
      <root>
        <mxCell id="0" />
        <mxCell id="1" parent="0" />
        <mxCell id="w0NGEqOYghttgbfUyrr0-118" style="edgeStyle=orthogonalEdgeStyle;rounded=0;orthogonalLoop=1;jettySize=auto;html=1;endArrow=diamond;endFill=0;endSize=12;entryX=0.5;entryY=0;entryDx=0;entryDy=0;" parent="1" source="w0NGEqOYghttgbfUyrr0-102" edge="1">
          <mxGeometry relative="1" as="geometry">
            <mxPoint x="1371" y="-630" as="targetPoint" />
          </mxGeometry>
        </mxCell>
        <mxCell id="w0NGEqOYghttgbfUyrr0-119" value="1 .. *" style="edgeLabel;html=1;align=center;verticalAlign=middle;resizable=0;points=[];" parent="w0NGEqOYghttgbfUyrr0-118" vertex="1" connectable="0">
          <mxGeometry x="-0.2579" y="-1" relative="1" as="geometry">
            <mxPoint as="offset" />
          </mxGeometry>
        </mxCell>
        <mxCell id="w0NGEqOYghttgbfUyrr0-102" value="&lt;div&gt;&lt;i&gt;&amp;lt;&amp;lt;Interface&amp;gt;&amp;gt;&lt;/i&gt;&lt;/div&gt;&lt;i&gt;IUser&lt;/i&gt;" style="swimlane;fontStyle=0;childLayout=stackLayout;horizontal=1;startSize=29;fillColor=none;horizontalStack=0;resizeParent=1;resizeParentMax=0;resizeLast=0;collapsible=1;marginBottom=0;whiteSpace=wrap;html=1;" parent="1" vertex="1">
          <mxGeometry x="1251" y="-774" width="240" height="107" as="geometry" />
        </mxCell>
        <mxCell id="w0NGEqOYghttgbfUyrr0-103" value="+View_Property(): void" style="text;strokeColor=none;fillColor=none;align=left;verticalAlign=top;spacingLeft=4;spacingRight=4;overflow=hidden;rotatable=0;points=[[0,0.5],[1,0.5]];portConstraint=eastwest;whiteSpace=wrap;html=1;" parent="w0NGEqOYghttgbfUyrr0-102" vertex="1">
          <mxGeometry y="29" width="240" height="26" as="geometry" />
        </mxCell>
        <mxCell id="w0NGEqOYghttgbfUyrr0-104" value="+Search_Property(): void" style="text;strokeColor=none;fillColor=none;align=left;verticalAlign=top;spacingLeft=4;spacingRight=4;overflow=hidden;rotatable=0;points=[[0,0.5],[1,0.5]];portConstraint=eastwest;whiteSpace=wrap;html=1;" parent="w0NGEqOYghttgbfUyrr0-102" vertex="1">
          <mxGeometry y="55" width="240" height="26" as="geometry" />
        </mxCell>
        <mxCell id="I_Ao7Ynuwbd4D35Jehym-140" value="+Change_Language(): void" style="text;strokeColor=none;fillColor=none;align=left;verticalAlign=top;spacingLeft=4;spacingRight=4;overflow=hidden;rotatable=0;points=[[0,0.5],[1,0.5]];portConstraint=eastwest;whiteSpace=wrap;html=1;" parent="w0NGEqOYghttgbfUyrr0-102" vertex="1">
          <mxGeometry y="81" width="240" height="26" as="geometry" />
        </mxCell>
        <mxCell id="w0NGEqOYghttgbfUyrr0-155" style="edgeStyle=orthogonalEdgeStyle;rounded=0;orthogonalLoop=1;jettySize=auto;html=1;endSize=12;endArrow=diamond;endFill=0;" parent="1" source="w0NGEqOYghttgbfUyrr0-106" target="w0NGEqOYghttgbfUyrr0-122" edge="1">
          <mxGeometry relative="1" as="geometry" />
        </mxCell>
        <mxCell id="w0NGEqOYghttgbfUyrr0-156" value="1 .. *" style="edgeLabel;html=1;align=center;verticalAlign=middle;resizable=0;points=[];" parent="w0NGEqOYghttgbfUyrr0-155" vertex="1" connectable="0">
          <mxGeometry x="-0.2346" y="1" relative="1" as="geometry">
            <mxPoint as="offset" />
          </mxGeometry>
        </mxCell>
        <mxCell id="w0NGEqOYghttgbfUyrr0-106" value="&lt;i&gt;&amp;lt;&amp;lt;Interface&amp;gt;&amp;gt;&lt;/i&gt;&lt;div&gt;&lt;i&gt;IRegister&lt;/i&gt;&lt;/div&gt;" style="swimlane;fontStyle=0;childLayout=stackLayout;horizontal=1;startSize=40;fillColor=none;horizontalStack=0;resizeParent=1;resizeParentMax=0;resizeLast=0;collapsible=1;marginBottom=0;whiteSpace=wrap;html=1;" parent="1" vertex="1">
          <mxGeometry x="1250" y="-100" width="240" height="66" as="geometry" />
        </mxCell>
        <mxCell id="w0NGEqOYghttgbfUyrr0-107" value="+Accept_TOS(): Boolean" style="text;strokeColor=none;fillColor=none;align=left;verticalAlign=top;spacingLeft=4;spacingRight=4;overflow=hidden;rotatable=0;points=[[0,0.5],[1,0.5]];portConstraint=eastwest;whiteSpace=wrap;html=1;" parent="w0NGEqOYghttgbfUyrr0-106" vertex="1">
          <mxGeometry y="40" width="240" height="26" as="geometry" />
        </mxCell>
        <mxCell id="w0NGEqOYghttgbfUyrr0-116" style="edgeStyle=orthogonalEdgeStyle;rounded=0;orthogonalLoop=1;jettySize=auto;html=1;entryX=0.5;entryY=0;entryDx=0;entryDy=0;" parent="1" source="w0NGEqOYghttgbfUyrr0-109" target="w0NGEqOYghttgbfUyrr0-102" edge="1">
          <mxGeometry relative="1" as="geometry" />
        </mxCell>
        <mxCell id="w0NGEqOYghttgbfUyrr0-117" value="0 .. *" style="edgeLabel;html=1;align=center;verticalAlign=middle;resizable=0;points=[];" parent="w0NGEqOYghttgbfUyrr0-116" vertex="1" connectable="0">
          <mxGeometry x="-0.2158" y="1" relative="1" as="geometry">
            <mxPoint as="offset" />
          </mxGeometry>
        </mxCell>
        <mxCell id="w0NGEqOYghttgbfUyrr0-109" value="&lt;b&gt;HomeQuest DB&lt;/b&gt;" style="swimlane;fontStyle=0;childLayout=stackLayout;horizontal=1;startSize=26;fillColor=none;horizontalStack=0;resizeParent=1;resizeParentMax=0;resizeLast=0;collapsible=1;marginBottom=0;whiteSpace=wrap;html=1;" parent="1" vertex="1">
          <mxGeometry x="1251" y="-1040" width="240" height="190" as="geometry" />
        </mxCell>
        <mxCell id="w0NGEqOYghttgbfUyrr0-110" value="-User_Record: List" style="text;strokeColor=none;fillColor=none;align=left;verticalAlign=top;spacingLeft=4;spacingRight=4;overflow=hidden;rotatable=0;points=[[0,0.5],[1,0.5]];portConstraint=eastwest;whiteSpace=wrap;html=1;" parent="w0NGEqOYghttgbfUyrr0-109" vertex="1">
          <mxGeometry y="26" width="240" height="26" as="geometry" />
        </mxCell>
        <mxCell id="w0NGEqOYghttgbfUyrr0-111" value="-Property_Records: List" style="text;strokeColor=none;fillColor=none;align=left;verticalAlign=top;spacingLeft=4;spacingRight=4;overflow=hidden;rotatable=0;points=[[0,0.5],[1,0.5]];portConstraint=eastwest;whiteSpace=wrap;html=1;" parent="w0NGEqOYghttgbfUyrr0-109" vertex="1">
          <mxGeometry y="52" width="240" height="26" as="geometry" />
        </mxCell>
        <mxCell id="w0NGEqOYghttgbfUyrr0-112" value="-Verified_Users: List" style="text;strokeColor=none;fillColor=none;align=left;verticalAlign=top;spacingLeft=4;spacingRight=4;overflow=hidden;rotatable=0;points=[[0,0.5],[1,0.5]];portConstraint=eastwest;whiteSpace=wrap;html=1;" parent="w0NGEqOYghttgbfUyrr0-109" vertex="1">
          <mxGeometry y="78" width="240" height="26" as="geometry" />
        </mxCell>
        <mxCell id="w0NGEqOYghttgbfUyrr0-56" value="" style="line;strokeWidth=1;fillColor=none;align=left;verticalAlign=middle;spacingTop=-1;spacingLeft=3;spacingRight=3;rotatable=0;labelPosition=right;points=[];portConstraint=eastwest;strokeColor=inherit;" parent="w0NGEqOYghttgbfUyrr0-109" vertex="1">
          <mxGeometry y="104" width="240" height="8" as="geometry" />
        </mxCell>
        <mxCell id="w0NGEqOYghttgbfUyrr0-113" value="+Store_Data(data: Object): void" style="text;strokeColor=none;fillColor=none;align=left;verticalAlign=top;spacingLeft=4;spacingRight=4;overflow=hidden;rotatable=0;points=[[0,0.5],[1,0.5]];portConstraint=eastwest;whiteSpace=wrap;html=1;" parent="w0NGEqOYghttgbfUyrr0-109" vertex="1">
          <mxGeometry y="112" width="240" height="26" as="geometry" />
        </mxCell>
        <mxCell id="w0NGEqOYghttgbfUyrr0-114" value="+Retrieve_Data(data: String): Object" style="text;strokeColor=none;fillColor=none;align=left;verticalAlign=top;spacingLeft=4;spacingRight=4;overflow=hidden;rotatable=0;points=[[0,0.5],[1,0.5]];portConstraint=eastwest;whiteSpace=wrap;html=1;" parent="w0NGEqOYghttgbfUyrr0-109" vertex="1">
          <mxGeometry y="138" width="240" height="26" as="geometry" />
        </mxCell>
        <mxCell id="w0NGEqOYghttgbfUyrr0-115" value="+Update_HomeQuest(data: Object): void&amp;nbsp;" style="text;strokeColor=none;fillColor=none;align=left;verticalAlign=top;spacingLeft=4;spacingRight=4;overflow=hidden;rotatable=0;points=[[0,0.5],[1,0.5]];portConstraint=eastwest;whiteSpace=wrap;html=1;" parent="w0NGEqOYghttgbfUyrr0-109" vertex="1">
          <mxGeometry y="164" width="240" height="26" as="geometry" />
        </mxCell>
        <mxCell id="I_Ao7Ynuwbd4D35Jehym-145" style="edgeStyle=orthogonalEdgeStyle;rounded=0;orthogonalLoop=1;jettySize=auto;html=1;endArrow=diamond;endFill=1;endSize=12;exitX=0;exitY=0.5;exitDx=0;exitDy=0;entryX=0.503;entryY=1.047;entryDx=0;entryDy=0;entryPerimeter=0;" parent="1" source="I_Ao7Ynuwbd4D35Jehym-32" target="I_Ao7Ynuwbd4D35Jehym-144" edge="1">
          <mxGeometry relative="1" as="geometry">
            <mxPoint x="600" y="180" as="targetPoint" />
            <Array as="points">
              <mxPoint x="880" y="310" />
              <mxPoint x="670" y="310" />
              <mxPoint x="670" y="154" />
            </Array>
          </mxGeometry>
        </mxCell>
        <mxCell id="I_Ao7Ynuwbd4D35Jehym-147" value="1" style="edgeLabel;html=1;align=center;verticalAlign=middle;resizable=0;points=[];" parent="I_Ao7Ynuwbd4D35Jehym-145" vertex="1" connectable="0">
          <mxGeometry x="0.0678" y="-2" relative="1" as="geometry">
            <mxPoint y="4" as="offset" />
          </mxGeometry>
        </mxCell>
        <mxCell id="w0NGEqOYghttgbfUyrr0-122" value="&lt;b&gt;User_Auth&lt;/b&gt;" style="swimlane;fontStyle=0;childLayout=stackLayout;horizontal=1;startSize=26;fillColor=none;horizontalStack=0;resizeParent=1;resizeParentMax=0;resizeLast=0;collapsible=1;marginBottom=0;whiteSpace=wrap;html=1;" parent="1" vertex="1">
          <mxGeometry x="1250" y="68" width="240" height="232" as="geometry" />
        </mxCell>
        <mxCell id="w0NGEqOYghttgbfUyrr0-123" value="-User_ID: Int" style="text;strokeColor=none;fillColor=none;align=left;verticalAlign=top;spacingLeft=4;spacingRight=4;overflow=hidden;rotatable=0;points=[[0,0.5],[1,0.5]];portConstraint=eastwest;whiteSpace=wrap;html=1;" parent="w0NGEqOYghttgbfUyrr0-122" vertex="1">
          <mxGeometry y="26" width="240" height="26" as="geometry" />
        </mxCell>
        <mxCell id="w0NGEqOYghttgbfUyrr0-124" value="-Password: Int" style="text;strokeColor=none;fillColor=none;align=left;verticalAlign=top;spacingLeft=4;spacingRight=4;overflow=hidden;rotatable=0;points=[[0,0.5],[1,0.5]];portConstraint=eastwest;whiteSpace=wrap;html=1;" parent="w0NGEqOYghttgbfUyrr0-122" vertex="1">
          <mxGeometry y="52" width="240" height="26" as="geometry" />
        </mxCell>
        <mxCell id="w0NGEqOYghttgbfUyrr0-125" value="-Email_ID: String" style="text;strokeColor=none;fillColor=none;align=left;verticalAlign=top;spacingLeft=4;spacingRight=4;overflow=hidden;rotatable=0;points=[[0,0.5],[1,0.5]];portConstraint=eastwest;whiteSpace=wrap;html=1;" parent="w0NGEqOYghttgbfUyrr0-122" vertex="1">
          <mxGeometry y="78" width="240" height="26" as="geometry" />
        </mxCell>
        <mxCell id="w0NGEqOYghttgbfUyrr0-130" value="-Date_Of_Birth: Int" style="text;strokeColor=none;fillColor=none;align=left;verticalAlign=top;spacingLeft=4;spacingRight=4;overflow=hidden;rotatable=0;points=[[0,0.5],[1,0.5]];portConstraint=eastwest;whiteSpace=wrap;html=1;" parent="w0NGEqOYghttgbfUyrr0-122" vertex="1">
          <mxGeometry y="104" width="240" height="26" as="geometry" />
        </mxCell>
        <mxCell id="w0NGEqOYghttgbfUyrr0-126" value="" style="line;strokeWidth=1;fillColor=none;align=left;verticalAlign=middle;spacingTop=-1;spacingLeft=3;spacingRight=3;rotatable=0;labelPosition=right;points=[];portConstraint=eastwest;strokeColor=inherit;" parent="w0NGEqOYghttgbfUyrr0-122" vertex="1">
          <mxGeometry y="130" width="240" height="8" as="geometry" />
        </mxCell>
        <mxCell id="w0NGEqOYghttgbfUyrr0-151" value="+Update_User(): void&amp;nbsp; # This is for upgarde" style="text;strokeColor=none;fillColor=none;align=left;verticalAlign=top;spacingLeft=4;spacingRight=4;overflow=hidden;rotatable=0;points=[[0,0.5],[1,0.5]];portConstraint=eastwest;whiteSpace=wrap;html=1;" parent="w0NGEqOYghttgbfUyrr0-122" vertex="1">
          <mxGeometry y="138" width="240" height="42" as="geometry" />
        </mxCell>
        <mxCell id="w0NGEqOYghttgbfUyrr0-147" value="+Register_Seller(): void" style="text;strokeColor=none;fillColor=none;align=left;verticalAlign=top;spacingLeft=4;spacingRight=4;overflow=hidden;rotatable=0;points=[[0,0.5],[1,0.5]];portConstraint=eastwest;whiteSpace=wrap;html=1;" parent="w0NGEqOYghttgbfUyrr0-122" vertex="1">
          <mxGeometry y="180" width="240" height="26" as="geometry" />
        </mxCell>
        <mxCell id="w0NGEqOYghttgbfUyrr0-148" value="+Register_Buyer(): void" style="text;strokeColor=none;fillColor=none;align=left;verticalAlign=top;spacingLeft=4;spacingRight=4;overflow=hidden;rotatable=0;points=[[0,0.5],[1,0.5]];portConstraint=eastwest;whiteSpace=wrap;html=1;" parent="w0NGEqOYghttgbfUyrr0-122" vertex="1">
          <mxGeometry y="206" width="240" height="26" as="geometry" />
        </mxCell>
        <mxCell id="w0NGEqOYghttgbfUyrr0-132" value="&lt;div&gt;&lt;i&gt;&amp;lt;&amp;lt;Interface&amp;gt;&amp;gt;&lt;/i&gt;&lt;/div&gt;&lt;i&gt;Optinonal_Information&lt;/i&gt;" style="swimlane;fontStyle=0;childLayout=stackLayout;horizontal=1;startSize=40;fillColor=none;horizontalStack=0;resizeParent=1;resizeParentMax=0;resizeLast=0;collapsible=1;marginBottom=0;whiteSpace=wrap;html=1;" parent="1" vertex="1">
          <mxGeometry x="881" y="74" width="240" height="92" as="geometry" />
        </mxCell>
        <mxCell id="w0NGEqOYghttgbfUyrr0-133" value="-Profile_Image: Object" style="text;strokeColor=none;fillColor=none;align=left;verticalAlign=top;spacingLeft=4;spacingRight=4;overflow=hidden;rotatable=0;points=[[0,0.5],[1,0.5]];portConstraint=eastwest;whiteSpace=wrap;html=1;" parent="w0NGEqOYghttgbfUyrr0-132" vertex="1">
          <mxGeometry y="40" width="240" height="26" as="geometry" />
        </mxCell>
        <mxCell id="w0NGEqOYghttgbfUyrr0-134" value="-Phone_Number: Int" style="text;strokeColor=none;fillColor=none;align=left;verticalAlign=top;spacingLeft=4;spacingRight=4;overflow=hidden;rotatable=0;points=[[0,0.5],[1,0.5]];portConstraint=eastwest;whiteSpace=wrap;html=1;" parent="w0NGEqOYghttgbfUyrr0-132" vertex="1">
          <mxGeometry y="66" width="240" height="26" as="geometry" />
        </mxCell>
        <mxCell id="w0NGEqOYghttgbfUyrr0-139" style="edgeStyle=orthogonalEdgeStyle;rounded=0;orthogonalLoop=1;jettySize=auto;html=1;endArrow=diamond;endFill=0;endSize=12;" parent="1" source="w0NGEqOYghttgbfUyrr0-132" edge="1">
          <mxGeometry relative="1" as="geometry">
            <mxPoint x="1250" y="119" as="targetPoint" />
          </mxGeometry>
        </mxCell>
        <mxCell id="w0NGEqOYghttgbfUyrr0-140" value="1" style="edgeLabel;html=1;align=center;verticalAlign=middle;resizable=0;points=[];" parent="w0NGEqOYghttgbfUyrr0-139" vertex="1" connectable="0">
          <mxGeometry x="-0.2288" relative="1" as="geometry">
            <mxPoint x="13" as="offset" />
          </mxGeometry>
        </mxCell>
        <mxCell id="I_Ao7Ynuwbd4D35Jehym-27" style="edgeStyle=orthogonalEdgeStyle;rounded=0;orthogonalLoop=1;jettySize=auto;html=1;entryX=0.5;entryY=0;entryDx=0;entryDy=0;" parent="1" source="w0NGEqOYghttgbfUyrr0-141" target="I_Ao7Ynuwbd4D35Jehym-16" edge="1">
          <mxGeometry relative="1" as="geometry" />
        </mxCell>
        <mxCell id="I_Ao7Ynuwbd4D35Jehym-28" value="1 .. *" style="edgeLabel;html=1;align=center;verticalAlign=middle;resizable=0;points=[];" parent="I_Ao7Ynuwbd4D35Jehym-27" vertex="1" connectable="0">
          <mxGeometry x="-0.186" relative="1" as="geometry">
            <mxPoint as="offset" />
          </mxGeometry>
        </mxCell>
        <mxCell id="w0NGEqOYghttgbfUyrr0-141" value="&lt;b&gt;Seller&lt;/b&gt;" style="swimlane;fontStyle=0;childLayout=stackLayout;horizontal=1;startSize=26;fillColor=none;horizontalStack=0;resizeParent=1;resizeParentMax=0;resizeLast=0;collapsible=1;marginBottom=0;whiteSpace=wrap;html=1;" parent="1" vertex="1">
          <mxGeometry x="880" y="290" width="240" height="216" as="geometry" />
        </mxCell>
        <mxCell id="sYUlOtbSZ_AGxyexaWMe-16" value="-Seller_ID: Int" style="text;strokeColor=none;fillColor=none;align=left;verticalAlign=top;spacingLeft=4;spacingRight=4;overflow=hidden;rotatable=0;points=[[0,0.5],[1,0.5]];portConstraint=eastwest;whiteSpace=wrap;html=1;" vertex="1" parent="w0NGEqOYghttgbfUyrr0-141">
          <mxGeometry y="26" width="240" height="26" as="geometry" />
        </mxCell>
        <mxCell id="w0NGEqOYghttgbfUyrr0-145" value="-Property_Listed: List" style="text;strokeColor=none;fillColor=none;align=left;verticalAlign=top;spacingLeft=4;spacingRight=4;overflow=hidden;rotatable=0;points=[[0,0.5],[1,0.5]];portConstraint=eastwest;whiteSpace=wrap;html=1;" parent="w0NGEqOYghttgbfUyrr0-141" vertex="1">
          <mxGeometry y="52" width="240" height="26" as="geometry" />
        </mxCell>
        <mxCell id="I_Ao7Ynuwbd4D35Jehym-32" value="-Seller_Rating: List" style="text;strokeColor=none;fillColor=none;align=left;verticalAlign=top;spacingLeft=4;spacingRight=4;overflow=hidden;rotatable=0;points=[[0,0.5],[1,0.5]];portConstraint=eastwest;whiteSpace=wrap;html=1;" parent="w0NGEqOYghttgbfUyrr0-141" vertex="1">
          <mxGeometry y="78" width="240" height="26" as="geometry" />
        </mxCell>
        <mxCell id="w0NGEqOYghttgbfUyrr0-131" value="-Consent_Location: Boolean" style="text;strokeColor=none;fillColor=none;align=left;verticalAlign=top;spacingLeft=4;spacingRight=4;overflow=hidden;rotatable=0;points=[[0,0.5],[1,0.5]];portConstraint=eastwest;whiteSpace=wrap;html=1;" parent="w0NGEqOYghttgbfUyrr0-141" vertex="1">
          <mxGeometry y="104" width="240" height="26" as="geometry" />
        </mxCell>
        <mxCell id="w0NGEqOYghttgbfUyrr0-146" value="" style="line;strokeWidth=1;fillColor=none;align=left;verticalAlign=middle;spacingTop=-1;spacingLeft=3;spacingRight=3;rotatable=0;labelPosition=right;points=[];portConstraint=eastwest;strokeColor=inherit;" parent="w0NGEqOYghttgbfUyrr0-141" vertex="1">
          <mxGeometry y="130" width="240" height="8" as="geometry" />
        </mxCell>
        <mxCell id="w0NGEqOYghttgbfUyrr0-149" value="+Add_Property: void" style="text;strokeColor=none;fillColor=none;align=left;verticalAlign=top;spacingLeft=4;spacingRight=4;overflow=hidden;rotatable=0;points=[[0,0.5],[1,0.5]];portConstraint=eastwest;whiteSpace=wrap;html=1;" parent="w0NGEqOYghttgbfUyrr0-141" vertex="1">
          <mxGeometry y="138" width="240" height="26" as="geometry" />
        </mxCell>
        <mxCell id="w0NGEqOYghttgbfUyrr0-153" value="+Add_Property_Description: void" style="text;strokeColor=none;fillColor=none;align=left;verticalAlign=top;spacingLeft=4;spacingRight=4;overflow=hidden;rotatable=0;points=[[0,0.5],[1,0.5]];portConstraint=eastwest;whiteSpace=wrap;html=1;" parent="w0NGEqOYghttgbfUyrr0-141" vertex="1">
          <mxGeometry y="164" width="240" height="26" as="geometry" />
        </mxCell>
        <mxCell id="w0NGEqOYghttgbfUyrr0-150" value="+Remove_Property: void" style="text;strokeColor=none;fillColor=none;align=left;verticalAlign=top;spacingLeft=4;spacingRight=4;overflow=hidden;rotatable=0;points=[[0,0.5],[1,0.5]];portConstraint=eastwest;whiteSpace=wrap;html=1;" parent="w0NGEqOYghttgbfUyrr0-141" vertex="1">
          <mxGeometry y="190" width="240" height="26" as="geometry" />
        </mxCell>
        <mxCell id="w0NGEqOYghttgbfUyrr0-154" value="1" style="edgeStyle=orthogonalEdgeStyle;rounded=0;orthogonalLoop=1;jettySize=auto;html=1;entryX=0.001;entryY=0.596;entryDx=0;entryDy=0;entryPerimeter=0;endArrow=diamond;endFill=1;endSize=12;" parent="1" source="w0NGEqOYghttgbfUyrr0-141" target="w0NGEqOYghttgbfUyrr0-126" edge="1">
          <mxGeometry relative="1" as="geometry" />
        </mxCell>
        <mxCell id="I_Ao7Ynuwbd4D35Jehym-12" style="edgeStyle=orthogonalEdgeStyle;rounded=0;orthogonalLoop=1;jettySize=auto;html=1;entryX=0.5;entryY=0;entryDx=0;entryDy=0;endArrow=none;startFill=1;startArrow=diamond;startSize=12;" parent="1" source="I_Ao7Ynuwbd4D35Jehym-1" target="I_Ao7Ynuwbd4D35Jehym-6" edge="1">
          <mxGeometry relative="1" as="geometry" />
        </mxCell>
        <mxCell id="I_Ao7Ynuwbd4D35Jehym-14" value="1" style="edgeLabel;html=1;align=center;verticalAlign=middle;resizable=0;points=[];" parent="I_Ao7Ynuwbd4D35Jehym-12" vertex="1" connectable="0">
          <mxGeometry x="0.0019" y="-1" relative="1" as="geometry">
            <mxPoint as="offset" />
          </mxGeometry>
        </mxCell>
        <mxCell id="I_Ao7Ynuwbd4D35Jehym-1" value="&lt;div&gt;&lt;i&gt;&amp;lt;&amp;lt;Interface&amp;gt;&amp;gt;&lt;/i&gt;&lt;/div&gt;&lt;i&gt;ISubscription&lt;/i&gt;" style="swimlane;fontStyle=0;childLayout=stackLayout;horizontal=1;startSize=40;fillColor=none;horizontalStack=0;resizeParent=1;resizeParentMax=0;resizeLast=0;collapsible=1;marginBottom=0;whiteSpace=wrap;html=1;" parent="1" vertex="1">
          <mxGeometry x="520" y="365" width="240" height="66" as="geometry" />
        </mxCell>
        <mxCell id="I_Ao7Ynuwbd4D35Jehym-2" value="+Has_membership(): void" style="text;strokeColor=none;fillColor=none;align=left;verticalAlign=top;spacingLeft=4;spacingRight=4;overflow=hidden;rotatable=0;points=[[0,0.5],[1,0.5]];portConstraint=eastwest;whiteSpace=wrap;html=1;" parent="I_Ao7Ynuwbd4D35Jehym-1" vertex="1">
          <mxGeometry y="40" width="240" height="26" as="geometry" />
        </mxCell>
        <mxCell id="I_Ao7Ynuwbd4D35Jehym-4" style="edgeStyle=orthogonalEdgeStyle;rounded=0;orthogonalLoop=1;jettySize=auto;html=1;entryX=0.007;entryY=0.725;entryDx=0;entryDy=0;entryPerimeter=0;endArrow=diamond;endFill=1;endSize=12;" parent="1" source="I_Ao7Ynuwbd4D35Jehym-1" target="w0NGEqOYghttgbfUyrr0-146" edge="1">
          <mxGeometry relative="1" as="geometry" />
        </mxCell>
        <mxCell id="I_Ao7Ynuwbd4D35Jehym-5" value="1 .. *" style="edgeLabel;html=1;align=center;verticalAlign=middle;resizable=0;points=[];" parent="I_Ao7Ynuwbd4D35Jehym-4" vertex="1" connectable="0">
          <mxGeometry x="-0.232" relative="1" as="geometry">
            <mxPoint as="offset" />
          </mxGeometry>
        </mxCell>
        <mxCell id="I_Ao7Ynuwbd4D35Jehym-13" style="edgeStyle=orthogonalEdgeStyle;rounded=0;orthogonalLoop=1;jettySize=auto;html=1;entryX=0.5;entryY=0;entryDx=0;entryDy=0;endArrow=none;startFill=1;startArrow=diamond;startSize=12;" parent="1" source="I_Ao7Ynuwbd4D35Jehym-6" target="I_Ao7Ynuwbd4D35Jehym-10" edge="1">
          <mxGeometry relative="1" as="geometry" />
        </mxCell>
        <mxCell id="I_Ao7Ynuwbd4D35Jehym-15" value="1" style="edgeLabel;html=1;align=center;verticalAlign=middle;resizable=0;points=[];" parent="I_Ao7Ynuwbd4D35Jehym-13" vertex="1" connectable="0">
          <mxGeometry x="0.0707" relative="1" as="geometry">
            <mxPoint as="offset" />
          </mxGeometry>
        </mxCell>
        <mxCell id="I_Ao7Ynuwbd4D35Jehym-6" value="&lt;div&gt;&lt;b&gt;Free_Subscription&lt;/b&gt;&lt;/div&gt;" style="swimlane;fontStyle=0;childLayout=stackLayout;horizontal=1;startSize=40;fillColor=none;horizontalStack=0;resizeParent=1;resizeParentMax=0;resizeLast=0;collapsible=1;marginBottom=0;whiteSpace=wrap;html=1;" parent="1" vertex="1">
          <mxGeometry x="520" y="484" width="240" height="66" as="geometry" />
        </mxCell>
        <mxCell id="I_Ao7Ynuwbd4D35Jehym-7" value="+Limited_Listing(): void" style="text;strokeColor=none;fillColor=none;align=left;verticalAlign=top;spacingLeft=4;spacingRight=4;overflow=hidden;rotatable=0;points=[[0,0.5],[1,0.5]];portConstraint=eastwest;whiteSpace=wrap;html=1;" parent="I_Ao7Ynuwbd4D35Jehym-6" vertex="1">
          <mxGeometry y="40" width="240" height="26" as="geometry" />
        </mxCell>
        <mxCell id="I_Ao7Ynuwbd4D35Jehym-10" value="&lt;div&gt;&lt;b&gt;Gold_Subscription&lt;/b&gt;&lt;/div&gt;" style="swimlane;fontStyle=0;childLayout=stackLayout;horizontal=1;startSize=40;fillColor=none;horizontalStack=0;resizeParent=1;resizeParentMax=0;resizeLast=0;collapsible=1;marginBottom=0;whiteSpace=wrap;html=1;" parent="1" vertex="1">
          <mxGeometry x="520" y="599" width="240" height="66" as="geometry" />
        </mxCell>
        <mxCell id="I_Ao7Ynuwbd4D35Jehym-11" value="+Unlimited_Listing(): void" style="text;strokeColor=none;fillColor=none;align=left;verticalAlign=top;spacingLeft=4;spacingRight=4;overflow=hidden;rotatable=0;points=[[0,0.5],[1,0.5]];portConstraint=eastwest;whiteSpace=wrap;html=1;" parent="I_Ao7Ynuwbd4D35Jehym-10" vertex="1">
          <mxGeometry y="40" width="240" height="26" as="geometry" />
        </mxCell>
        <mxCell id="I_Ao7Ynuwbd4D35Jehym-16" value="&lt;div&gt;&lt;i&gt;&amp;lt;&amp;lt;Interface&amp;gt;&amp;gt;&lt;/i&gt;&lt;/div&gt;&lt;i&gt;IListing&lt;/i&gt;" style="swimlane;fontStyle=0;childLayout=stackLayout;horizontal=1;startSize=40;fillColor=none;horizontalStack=0;resizeParent=1;resizeParentMax=0;resizeLast=0;collapsible=1;marginBottom=0;whiteSpace=wrap;html=1;" parent="1" vertex="1">
          <mxGeometry x="880" y="540" width="240" height="66" as="geometry" />
        </mxCell>
        <mxCell id="I_Ao7Ynuwbd4D35Jehym-17" value="+Get_Listing_Type(): void" style="text;strokeColor=none;fillColor=none;align=left;verticalAlign=top;spacingLeft=4;spacingRight=4;overflow=hidden;rotatable=0;points=[[0,0.5],[1,0.5]];portConstraint=eastwest;whiteSpace=wrap;html=1;" parent="I_Ao7Ynuwbd4D35Jehym-16" vertex="1">
          <mxGeometry y="40" width="240" height="26" as="geometry" />
        </mxCell>
        <mxCell id="I_Ao7Ynuwbd4D35Jehym-18" value="&lt;b&gt;Listing&lt;/b&gt;" style="swimlane;fontStyle=0;childLayout=stackLayout;horizontal=1;startSize=26;fillColor=none;horizontalStack=0;resizeParent=1;resizeParentMax=0;resizeLast=0;collapsible=1;marginBottom=0;whiteSpace=wrap;html=1;" parent="1" vertex="1">
          <mxGeometry x="880" y="706" width="240" height="242" as="geometry" />
        </mxCell>
        <mxCell id="I_Ao7Ynuwbd4D35Jehym-19" value="-Listing_ID: Int" style="text;strokeColor=none;fillColor=none;align=left;verticalAlign=top;spacingLeft=4;spacingRight=4;overflow=hidden;rotatable=0;points=[[0,0.5],[1,0.5]];portConstraint=eastwest;whiteSpace=wrap;html=1;" parent="I_Ao7Ynuwbd4D35Jehym-18" vertex="1">
          <mxGeometry y="26" width="240" height="26" as="geometry" />
        </mxCell>
        <mxCell id="I_Ao7Ynuwbd4D35Jehym-20" value="-Listing_Name: String" style="text;strokeColor=none;fillColor=none;align=left;verticalAlign=top;spacingLeft=4;spacingRight=4;overflow=hidden;rotatable=0;points=[[0,0.5],[1,0.5]];portConstraint=eastwest;whiteSpace=wrap;html=1;" parent="I_Ao7Ynuwbd4D35Jehym-18" vertex="1">
          <mxGeometry y="52" width="240" height="26" as="geometry" />
        </mxCell>
        <mxCell id="I_Ao7Ynuwbd4D35Jehym-93" value="-Listing_Price: Int" style="text;strokeColor=none;fillColor=none;align=left;verticalAlign=top;spacingLeft=4;spacingRight=4;overflow=hidden;rotatable=0;points=[[0,0.5],[1,0.5]];portConstraint=eastwest;whiteSpace=wrap;html=1;" parent="I_Ao7Ynuwbd4D35Jehym-18" vertex="1">
          <mxGeometry y="78" width="240" height="26" as="geometry" />
        </mxCell>
        <mxCell id="I_Ao7Ynuwbd4D35Jehym-21" value="-Listing_Type: String" style="text;strokeColor=none;fillColor=none;align=left;verticalAlign=top;spacingLeft=4;spacingRight=4;overflow=hidden;rotatable=0;points=[[0,0.5],[1,0.5]];portConstraint=eastwest;whiteSpace=wrap;html=1;" parent="I_Ao7Ynuwbd4D35Jehym-18" vertex="1">
          <mxGeometry y="104" width="240" height="26" as="geometry" />
        </mxCell>
        <mxCell id="I_Ao7Ynuwbd4D35Jehym-94" value="-Listing_Size: Int" style="text;strokeColor=none;fillColor=none;align=left;verticalAlign=top;spacingLeft=4;spacingRight=4;overflow=hidden;rotatable=0;points=[[0,0.5],[1,0.5]];portConstraint=eastwest;whiteSpace=wrap;html=1;" parent="I_Ao7Ynuwbd4D35Jehym-18" vertex="1">
          <mxGeometry y="130" width="240" height="26" as="geometry" />
        </mxCell>
        <mxCell id="I_Ao7Ynuwbd4D35Jehym-95" value="-Listing_Number_Of_Rooms: Int" style="text;strokeColor=none;fillColor=none;align=left;verticalAlign=top;spacingLeft=4;spacingRight=4;overflow=hidden;rotatable=0;points=[[0,0.5],[1,0.5]];portConstraint=eastwest;whiteSpace=wrap;html=1;" parent="I_Ao7Ynuwbd4D35Jehym-18" vertex="1">
          <mxGeometry y="156" width="240" height="26" as="geometry" />
        </mxCell>
        <mxCell id="I_Ao7Ynuwbd4D35Jehym-23" value="" style="line;strokeWidth=1;fillColor=none;align=left;verticalAlign=middle;spacingTop=-1;spacingLeft=3;spacingRight=3;rotatable=0;labelPosition=right;points=[];portConstraint=eastwest;strokeColor=inherit;" parent="I_Ao7Ynuwbd4D35Jehym-18" vertex="1">
          <mxGeometry y="182" width="240" height="8" as="geometry" />
        </mxCell>
        <mxCell id="I_Ao7Ynuwbd4D35Jehym-33" value="+Is_Commercial_Listing: void" style="text;strokeColor=none;fillColor=none;align=left;verticalAlign=top;spacingLeft=4;spacingRight=4;overflow=hidden;rotatable=0;points=[[0,0.5],[1,0.5]];portConstraint=eastwest;whiteSpace=wrap;html=1;" parent="I_Ao7Ynuwbd4D35Jehym-18" vertex="1">
          <mxGeometry y="190" width="240" height="26" as="geometry" />
        </mxCell>
        <mxCell id="I_Ao7Ynuwbd4D35Jehym-34" value="+Is_Residential_Listing: void" style="text;strokeColor=none;fillColor=none;align=left;verticalAlign=top;spacingLeft=4;spacingRight=4;overflow=hidden;rotatable=0;points=[[0,0.5],[1,0.5]];portConstraint=eastwest;whiteSpace=wrap;html=1;" parent="I_Ao7Ynuwbd4D35Jehym-18" vertex="1">
          <mxGeometry y="216" width="240" height="26" as="geometry" />
        </mxCell>
        <mxCell id="I_Ao7Ynuwbd4D35Jehym-29" style="edgeStyle=orthogonalEdgeStyle;rounded=0;orthogonalLoop=1;jettySize=auto;html=1;entryX=0.5;entryY=0;entryDx=0;entryDy=0;endArrow=diamond;endFill=0;endSize=12;" parent="1" source="I_Ao7Ynuwbd4D35Jehym-16" target="I_Ao7Ynuwbd4D35Jehym-18" edge="1">
          <mxGeometry relative="1" as="geometry" />
        </mxCell>
        <mxCell id="I_Ao7Ynuwbd4D35Jehym-31" value="1 .. *" style="edgeLabel;html=1;align=center;verticalAlign=middle;resizable=0;points=[];" parent="I_Ao7Ynuwbd4D35Jehym-29" vertex="1" connectable="0">
          <mxGeometry x="0.0622" relative="1" as="geometry">
            <mxPoint as="offset" />
          </mxGeometry>
        </mxCell>
        <mxCell id="I_Ao7Ynuwbd4D35Jehym-36" value="&lt;b&gt;Buyer&lt;/b&gt;" style="swimlane;fontStyle=0;childLayout=stackLayout;horizontal=1;startSize=26;fillColor=none;horizontalStack=0;resizeParent=1;resizeParentMax=0;resizeLast=0;collapsible=1;marginBottom=0;whiteSpace=wrap;html=1;" parent="1" vertex="1">
          <mxGeometry x="1661" y="291" width="240" height="112" as="geometry" />
        </mxCell>
        <mxCell id="sYUlOtbSZ_AGxyexaWMe-15" value="-Buyer_ID: Int" style="text;strokeColor=none;fillColor=none;align=left;verticalAlign=top;spacingLeft=4;spacingRight=4;overflow=hidden;rotatable=0;points=[[0,0.5],[1,0.5]];portConstraint=eastwest;whiteSpace=wrap;html=1;" vertex="1" parent="I_Ao7Ynuwbd4D35Jehym-36">
          <mxGeometry y="26" width="240" height="26" as="geometry" />
        </mxCell>
        <mxCell id="I_Ao7Ynuwbd4D35Jehym-37" value="-Properties_viewed: List" style="text;strokeColor=none;fillColor=none;align=left;verticalAlign=top;spacingLeft=4;spacingRight=4;overflow=hidden;rotatable=0;points=[[0,0.5],[1,0.5]];portConstraint=eastwest;whiteSpace=wrap;html=1;" parent="I_Ao7Ynuwbd4D35Jehym-36" vertex="1">
          <mxGeometry y="52" width="240" height="26" as="geometry" />
        </mxCell>
        <mxCell id="I_Ao7Ynuwbd4D35Jehym-40" value="" style="line;strokeWidth=1;fillColor=none;align=left;verticalAlign=middle;spacingTop=-1;spacingLeft=3;spacingRight=3;rotatable=0;labelPosition=right;points=[];portConstraint=eastwest;strokeColor=inherit;" parent="I_Ao7Ynuwbd4D35Jehym-36" vertex="1">
          <mxGeometry y="78" width="240" height="8" as="geometry" />
        </mxCell>
        <mxCell id="I_Ao7Ynuwbd4D35Jehym-42" value="+Added_Documents(): void" style="text;strokeColor=none;fillColor=none;align=left;verticalAlign=top;spacingLeft=4;spacingRight=4;overflow=hidden;rotatable=0;points=[[0,0.5],[1,0.5]];portConstraint=eastwest;whiteSpace=wrap;html=1;" parent="I_Ao7Ynuwbd4D35Jehym-36" vertex="1">
          <mxGeometry y="86" width="240" height="26" as="geometry" />
        </mxCell>
        <mxCell id="I_Ao7Ynuwbd4D35Jehym-44" style="edgeStyle=orthogonalEdgeStyle;rounded=0;orthogonalLoop=1;jettySize=auto;html=1;entryX=1.004;entryY=1.192;entryDx=0;entryDy=0;entryPerimeter=0;endArrow=diamond;endFill=1;endSize=12;" parent="1" source="I_Ao7Ynuwbd4D35Jehym-36" target="w0NGEqOYghttgbfUyrr0-130" edge="1">
          <mxGeometry relative="1" as="geometry" />
        </mxCell>
        <mxCell id="I_Ao7Ynuwbd4D35Jehym-45" value="1" style="edgeLabel;html=1;align=center;verticalAlign=middle;resizable=0;points=[];" parent="I_Ao7Ynuwbd4D35Jehym-44" vertex="1" connectable="0">
          <mxGeometry x="0.0554" y="-2" relative="1" as="geometry">
            <mxPoint y="1" as="offset" />
          </mxGeometry>
        </mxCell>
        <mxCell id="I_Ao7Ynuwbd4D35Jehym-46" value="&lt;b&gt;Payment&lt;/b&gt;" style="swimlane;fontStyle=0;childLayout=stackLayout;horizontal=1;startSize=26;fillColor=none;horizontalStack=0;resizeParent=1;resizeParentMax=0;resizeLast=0;collapsible=1;marginBottom=0;whiteSpace=wrap;html=1;" parent="1" vertex="1">
          <mxGeometry x="1256" y="534" width="240" height="104" as="geometry" />
        </mxCell>
        <mxCell id="I_Ao7Ynuwbd4D35Jehym-47" value="-Payment_ID: Int" style="text;strokeColor=none;fillColor=none;align=left;verticalAlign=top;spacingLeft=4;spacingRight=4;overflow=hidden;rotatable=0;points=[[0,0.5],[1,0.5]];portConstraint=eastwest;whiteSpace=wrap;html=1;" parent="I_Ao7Ynuwbd4D35Jehym-46" vertex="1">
          <mxGeometry y="26" width="240" height="26" as="geometry" />
        </mxCell>
        <mxCell id="I_Ao7Ynuwbd4D35Jehym-48" value="-Payment_Method: Strring" style="text;strokeColor=none;fillColor=none;align=left;verticalAlign=top;spacingLeft=4;spacingRight=4;overflow=hidden;rotatable=0;points=[[0,0.5],[1,0.5]];portConstraint=eastwest;whiteSpace=wrap;html=1;" parent="I_Ao7Ynuwbd4D35Jehym-46" vertex="1">
          <mxGeometry y="52" width="240" height="26" as="geometry" />
        </mxCell>
        <mxCell id="I_Ao7Ynuwbd4D35Jehym-49" value="-Receipt: String" style="text;strokeColor=none;fillColor=none;align=left;verticalAlign=top;spacingLeft=4;spacingRight=4;overflow=hidden;rotatable=0;points=[[0,0.5],[1,0.5]];portConstraint=eastwest;whiteSpace=wrap;html=1;" parent="I_Ao7Ynuwbd4D35Jehym-46" vertex="1">
          <mxGeometry y="78" width="240" height="26" as="geometry" />
        </mxCell>
        <mxCell id="I_Ao7Ynuwbd4D35Jehym-54" style="edgeStyle=orthogonalEdgeStyle;rounded=0;orthogonalLoop=1;jettySize=auto;html=1;entryX=-0.003;entryY=0.597;entryDx=0;entryDy=0;entryPerimeter=0;endArrow=diamond;startFill=0;endFill=1;endSize=12;" parent="1" source="w0NGEqOYghttgbfUyrr0-141" target="I_Ao7Ynuwbd4D35Jehym-57" edge="1">
          <mxGeometry relative="1" as="geometry" />
        </mxCell>
        <mxCell id="I_Ao7Ynuwbd4D35Jehym-56" value="1 .. *" style="edgeLabel;html=1;align=center;verticalAlign=middle;resizable=0;points=[];" parent="I_Ao7Ynuwbd4D35Jehym-54" vertex="1" connectable="0">
          <mxGeometry x="-0.0027" y="3" relative="1" as="geometry">
            <mxPoint x="-2" y="-2" as="offset" />
          </mxGeometry>
        </mxCell>
        <mxCell id="I_Ao7Ynuwbd4D35Jehym-59" style="edgeStyle=orthogonalEdgeStyle;rounded=0;orthogonalLoop=1;jettySize=auto;html=1;entryX=0.5;entryY=0;entryDx=0;entryDy=0;endArrow=none;startFill=1;startArrow=diamond;startSize=12;" parent="1" source="I_Ao7Ynuwbd4D35Jehym-57" target="I_Ao7Ynuwbd4D35Jehym-46" edge="1">
          <mxGeometry relative="1" as="geometry" />
        </mxCell>
        <mxCell id="I_Ao7Ynuwbd4D35Jehym-60" value="1" style="edgeLabel;html=1;align=center;verticalAlign=middle;resizable=0;points=[];" parent="I_Ao7Ynuwbd4D35Jehym-59" vertex="1" connectable="0">
          <mxGeometry x="-0.1323" relative="1" as="geometry">
            <mxPoint y="7" as="offset" />
          </mxGeometry>
        </mxCell>
        <mxCell id="I_Ao7Ynuwbd4D35Jehym-57" value="&lt;div&gt;&lt;i&gt;&amp;lt;&amp;lt;Interface&amp;gt;&amp;gt;&lt;/i&gt;&lt;/div&gt;&lt;i&gt;IPlan_Subscription&lt;/i&gt;" style="swimlane;fontStyle=0;childLayout=stackLayout;horizontal=1;startSize=40;fillColor=none;horizontalStack=0;resizeParent=1;resizeParentMax=0;resizeLast=0;collapsible=1;marginBottom=0;whiteSpace=wrap;html=1;" parent="1" vertex="1">
          <mxGeometry x="1256" y="345" width="240" height="144" as="geometry" />
        </mxCell>
        <mxCell id="sYUlOtbSZ_AGxyexaWMe-2" value="+Yearly():void" style="text;strokeColor=none;fillColor=none;align=left;verticalAlign=top;spacingLeft=4;spacingRight=4;overflow=hidden;rotatable=0;points=[[0,0.5],[1,0.5]];portConstraint=eastwest;whiteSpace=wrap;html=1;" vertex="1" parent="I_Ao7Ynuwbd4D35Jehym-57">
          <mxGeometry y="40" width="240" height="26" as="geometry" />
        </mxCell>
        <mxCell id="sYUlOtbSZ_AGxyexaWMe-3" value="+Quarterly():void" style="text;strokeColor=none;fillColor=none;align=left;verticalAlign=top;spacingLeft=4;spacingRight=4;overflow=hidden;rotatable=0;points=[[0,0.5],[1,0.5]];portConstraint=eastwest;whiteSpace=wrap;html=1;" vertex="1" parent="I_Ao7Ynuwbd4D35Jehym-57">
          <mxGeometry y="66" width="240" height="26" as="geometry" />
        </mxCell>
        <mxCell id="sYUlOtbSZ_AGxyexaWMe-1" value="+Monthly():void" style="text;strokeColor=none;fillColor=none;align=left;verticalAlign=top;spacingLeft=4;spacingRight=4;overflow=hidden;rotatable=0;points=[[0,0.5],[1,0.5]];portConstraint=eastwest;whiteSpace=wrap;html=1;" vertex="1" parent="I_Ao7Ynuwbd4D35Jehym-57">
          <mxGeometry y="92" width="240" height="26" as="geometry" />
        </mxCell>
        <mxCell id="I_Ao7Ynuwbd4D35Jehym-58" value="+Weekly():void" style="text;strokeColor=none;fillColor=none;align=left;verticalAlign=top;spacingLeft=4;spacingRight=4;overflow=hidden;rotatable=0;points=[[0,0.5],[1,0.5]];portConstraint=eastwest;whiteSpace=wrap;html=1;" parent="I_Ao7Ynuwbd4D35Jehym-57" vertex="1">
          <mxGeometry y="118" width="240" height="26" as="geometry" />
        </mxCell>
        <mxCell id="I_Ao7Ynuwbd4D35Jehym-62" value="&lt;div&gt;&lt;i&gt;&amp;lt;&amp;lt;Interface&amp;gt;&amp;gt;&lt;/i&gt;&lt;/div&gt;&lt;i&gt;IRating&lt;/i&gt;" style="swimlane;fontStyle=0;childLayout=stackLayout;horizontal=1;startSize=40;fillColor=none;horizontalStack=0;resizeParent=1;resizeParentMax=0;resizeLast=0;collapsible=1;marginBottom=0;whiteSpace=wrap;html=1;" parent="1" vertex="1">
          <mxGeometry x="1664" y="471" width="240" height="92" as="geometry" />
        </mxCell>
        <mxCell id="I_Ao7Ynuwbd4D35Jehym-63" value="+Like_Seller(): void" style="text;strokeColor=none;fillColor=none;align=left;verticalAlign=top;spacingLeft=4;spacingRight=4;overflow=hidden;rotatable=0;points=[[0,0.5],[1,0.5]];portConstraint=eastwest;whiteSpace=wrap;html=1;" parent="I_Ao7Ynuwbd4D35Jehym-62" vertex="1">
          <mxGeometry y="40" width="240" height="26" as="geometry" />
        </mxCell>
        <mxCell id="sYUlOtbSZ_AGxyexaWMe-4" value="+Comment_on_Seller(): void" style="text;strokeColor=none;fillColor=none;align=left;verticalAlign=top;spacingLeft=4;spacingRight=4;overflow=hidden;rotatable=0;points=[[0,0.5],[1,0.5]];portConstraint=eastwest;whiteSpace=wrap;html=1;" vertex="1" parent="I_Ao7Ynuwbd4D35Jehym-62">
          <mxGeometry y="66" width="240" height="26" as="geometry" />
        </mxCell>
        <mxCell id="I_Ao7Ynuwbd4D35Jehym-64" style="edgeStyle=orthogonalEdgeStyle;rounded=0;orthogonalLoop=1;jettySize=auto;html=1;endArrow=diamond;endFill=1;endSize=12;entryX=0.512;entryY=0.971;entryDx=0;entryDy=0;entryPerimeter=0;" parent="1" source="I_Ao7Ynuwbd4D35Jehym-62" edge="1" target="I_Ao7Ynuwbd4D35Jehym-42">
          <mxGeometry relative="1" as="geometry">
            <mxPoint x="1820" y="290" as="targetPoint" />
          </mxGeometry>
        </mxCell>
        <mxCell id="I_Ao7Ynuwbd4D35Jehym-65" value="1 .. *" style="edgeLabel;html=1;align=center;verticalAlign=middle;resizable=0;points=[];" parent="I_Ao7Ynuwbd4D35Jehym-64" vertex="1" connectable="0">
          <mxGeometry x="0.3855" y="-1" relative="1" as="geometry">
            <mxPoint as="offset" />
          </mxGeometry>
        </mxCell>
        <mxCell id="I_Ao7Ynuwbd4D35Jehym-66" value="&lt;i&gt;&amp;lt;&amp;lt;Interface&amp;gt;&amp;gt;&lt;/i&gt;&lt;div&gt;&lt;i&gt;ISearch&lt;/i&gt;&lt;/div&gt;" style="swimlane;fontStyle=0;childLayout=stackLayout;horizontal=1;startSize=30;fillColor=none;horizontalStack=0;resizeParent=1;resizeParentMax=0;resizeLast=0;collapsible=1;marginBottom=0;whiteSpace=wrap;html=1;" parent="1" vertex="1">
          <mxGeometry x="1251" y="-630" width="240" height="82" as="geometry" />
        </mxCell>
        <mxCell id="I_Ao7Ynuwbd4D35Jehym-67" value="+Search_For_Rent(): Boolean" style="text;strokeColor=none;fillColor=none;align=left;verticalAlign=top;spacingLeft=4;spacingRight=4;overflow=hidden;rotatable=0;points=[[0,0.5],[1,0.5]];portConstraint=eastwest;whiteSpace=wrap;html=1;" parent="I_Ao7Ynuwbd4D35Jehym-66" vertex="1">
          <mxGeometry y="30" width="240" height="26" as="geometry" />
        </mxCell>
        <mxCell id="I_Ao7Ynuwbd4D35Jehym-82" value="+Search_For_Purchase(): Boolean" style="text;strokeColor=none;fillColor=none;align=left;verticalAlign=top;spacingLeft=4;spacingRight=4;overflow=hidden;rotatable=0;points=[[0,0.5],[1,0.5]];portConstraint=eastwest;whiteSpace=wrap;html=1;" parent="I_Ao7Ynuwbd4D35Jehym-66" vertex="1">
          <mxGeometry y="56" width="240" height="26" as="geometry" />
        </mxCell>
        <mxCell id="I_Ao7Ynuwbd4D35Jehym-74" style="edgeStyle=orthogonalEdgeStyle;rounded=0;orthogonalLoop=1;jettySize=auto;html=1;entryX=0.498;entryY=1.051;entryDx=0;entryDy=0;endArrow=diamond;endFill=1;endSize=12;entryPerimeter=0;" parent="1" source="I_Ao7Ynuwbd4D35Jehym-72" target="I_Ao7Ynuwbd4D35Jehym-82" edge="1">
          <mxGeometry relative="1" as="geometry">
            <Array as="points">
              <mxPoint x="1371" y="-547" />
            </Array>
          </mxGeometry>
        </mxCell>
        <mxCell id="I_Ao7Ynuwbd4D35Jehym-75" value="1 .. *" style="edgeLabel;html=1;align=center;verticalAlign=middle;resizable=0;points=[];" parent="I_Ao7Ynuwbd4D35Jehym-74" vertex="1" connectable="0">
          <mxGeometry x="-0.1048" relative="1" as="geometry">
            <mxPoint as="offset" />
          </mxGeometry>
        </mxCell>
        <mxCell id="I_Ao7Ynuwbd4D35Jehym-131" style="edgeStyle=orthogonalEdgeStyle;rounded=0;orthogonalLoop=1;jettySize=auto;html=1;entryX=0.5;entryY=0;entryDx=0;entryDy=0;endArrow=none;startFill=0;startArrow=diamond;startSize=12;" parent="1" source="I_Ao7Ynuwbd4D35Jehym-72" target="I_Ao7Ynuwbd4D35Jehym-123" edge="1">
          <mxGeometry relative="1" as="geometry" />
        </mxCell>
        <mxCell id="I_Ao7Ynuwbd4D35Jehym-132" value="1 .. *" style="edgeLabel;html=1;align=center;verticalAlign=middle;resizable=0;points=[];" parent="I_Ao7Ynuwbd4D35Jehym-131" vertex="1" connectable="0">
          <mxGeometry x="0.4973" relative="1" as="geometry">
            <mxPoint as="offset" />
          </mxGeometry>
        </mxCell>
        <mxCell id="I_Ao7Ynuwbd4D35Jehym-72" value="&lt;i&gt;&amp;lt;&amp;lt;Interface&amp;gt;&amp;gt;&lt;/i&gt;&lt;div&gt;&lt;i&gt;IFilters&lt;/i&gt;&lt;/div&gt;" style="swimlane;fontStyle=0;childLayout=stackLayout;horizontal=1;startSize=40;fillColor=none;horizontalStack=0;resizeParent=1;resizeParentMax=0;resizeLast=0;collapsible=1;marginBottom=0;whiteSpace=wrap;html=1;" parent="1" vertex="1">
          <mxGeometry x="1251" y="-480" width="240" height="66" as="geometry" />
        </mxCell>
        <mxCell id="I_Ao7Ynuwbd4D35Jehym-73" value="+Add_Filters(): Boolean" style="text;strokeColor=none;fillColor=none;align=left;verticalAlign=top;spacingLeft=4;spacingRight=4;overflow=hidden;rotatable=0;points=[[0,0.5],[1,0.5]];portConstraint=eastwest;whiteSpace=wrap;html=1;" parent="I_Ao7Ynuwbd4D35Jehym-72" vertex="1">
          <mxGeometry y="40" width="240" height="26" as="geometry" />
        </mxCell>
        <mxCell id="I_Ao7Ynuwbd4D35Jehym-133" style="edgeStyle=orthogonalEdgeStyle;rounded=0;orthogonalLoop=1;jettySize=auto;html=1;endSize=12;endArrow=diamond;endFill=1;" parent="1" source="I_Ao7Ynuwbd4D35Jehym-83" edge="1">
          <mxGeometry relative="1" as="geometry">
            <mxPoint x="1252.0476190476188" y="-270.6190476190477" as="targetPoint" />
          </mxGeometry>
        </mxCell>
        <mxCell id="I_Ao7Ynuwbd4D35Jehym-136" value="1 .. *" style="edgeLabel;html=1;align=center;verticalAlign=middle;resizable=0;points=[];" parent="I_Ao7Ynuwbd4D35Jehym-133" vertex="1" connectable="0">
          <mxGeometry x="-0.0135" y="2" relative="1" as="geometry">
            <mxPoint as="offset" />
          </mxGeometry>
        </mxCell>
        <mxCell id="I_Ao7Ynuwbd4D35Jehym-83" value="&lt;b&gt;Search_For_Rent&lt;/b&gt;" style="swimlane;fontStyle=0;childLayout=stackLayout;horizontal=1;startSize=26;fillColor=none;horizontalStack=0;resizeParent=1;resizeParentMax=0;resizeLast=0;collapsible=1;marginBottom=0;whiteSpace=wrap;html=1;" parent="1" vertex="1">
          <mxGeometry x="951" y="-310" width="240" height="78" as="geometry" />
        </mxCell>
        <mxCell id="I_Ao7Ynuwbd4D35Jehym-85" value="-Property_Price_for_Rental: Int" style="text;strokeColor=none;fillColor=none;align=left;verticalAlign=top;spacingLeft=4;spacingRight=4;overflow=hidden;rotatable=0;points=[[0,0.5],[1,0.5]];portConstraint=eastwest;whiteSpace=wrap;html=1;" parent="I_Ao7Ynuwbd4D35Jehym-83" vertex="1">
          <mxGeometry y="26" width="240" height="26" as="geometry" />
        </mxCell>
        <mxCell id="I_Ao7Ynuwbd4D35Jehym-115" value="-Property_Rent_Duration: Int" style="text;strokeColor=none;fillColor=none;align=left;verticalAlign=top;spacingLeft=4;spacingRight=4;overflow=hidden;rotatable=0;points=[[0,0.5],[1,0.5]];portConstraint=eastwest;whiteSpace=wrap;html=1;" parent="I_Ao7Ynuwbd4D35Jehym-83" vertex="1">
          <mxGeometry y="52" width="240" height="26" as="geometry" />
        </mxCell>
        <mxCell id="I_Ao7Ynuwbd4D35Jehym-96" value="&lt;b&gt;Listing_Rent&lt;/b&gt;" style="swimlane;fontStyle=0;childLayout=stackLayout;horizontal=1;startSize=26;fillColor=none;horizontalStack=0;resizeParent=1;resizeParentMax=0;resizeLast=0;collapsible=1;marginBottom=0;whiteSpace=wrap;html=1;" parent="1" vertex="1">
          <mxGeometry x="543" y="856" width="240" height="52" as="geometry" />
        </mxCell>
        <mxCell id="I_Ao7Ynuwbd4D35Jehym-104" value="-Listing_Duration: Int" style="text;strokeColor=none;fillColor=none;align=left;verticalAlign=top;spacingLeft=4;spacingRight=4;overflow=hidden;rotatable=0;points=[[0,0.5],[1,0.5]];portConstraint=eastwest;whiteSpace=wrap;html=1;" parent="I_Ao7Ynuwbd4D35Jehym-96" vertex="1">
          <mxGeometry y="26" width="240" height="26" as="geometry" />
        </mxCell>
        <mxCell id="I_Ao7Ynuwbd4D35Jehym-106" value="1" style="edgeStyle=orthogonalEdgeStyle;rounded=0;orthogonalLoop=1;jettySize=auto;html=1;entryX=0.003;entryY=0.795;entryDx=0;entryDy=0;entryPerimeter=0;endArrow=diamond;endFill=1;endSize=12;" parent="1" source="I_Ao7Ynuwbd4D35Jehym-96" target="I_Ao7Ynuwbd4D35Jehym-95" edge="1">
          <mxGeometry relative="1" as="geometry" />
        </mxCell>
        <mxCell id="I_Ao7Ynuwbd4D35Jehym-107" value="1" style="edgeLabel;html=1;align=center;verticalAlign=middle;resizable=0;points=[];" parent="I_Ao7Ynuwbd4D35Jehym-106" vertex="1" connectable="0">
          <mxGeometry x="0.0263" y="1" relative="1" as="geometry">
            <mxPoint as="offset" />
          </mxGeometry>
        </mxCell>
        <mxCell id="I_Ao7Ynuwbd4D35Jehym-134" style="edgeStyle=orthogonalEdgeStyle;rounded=0;orthogonalLoop=1;jettySize=auto;html=1;entryX=1;entryY=0.5;entryDx=0;entryDy=0;endArrow=diamond;endFill=1;endSize=12;" parent="1" source="I_Ao7Ynuwbd4D35Jehym-108" target="I_Ao7Ynuwbd4D35Jehym-127" edge="1">
          <mxGeometry relative="1" as="geometry" />
        </mxCell>
        <mxCell id="I_Ao7Ynuwbd4D35Jehym-135" value="1 .. *" style="edgeLabel;html=1;align=center;verticalAlign=middle;resizable=0;points=[];" parent="I_Ao7Ynuwbd4D35Jehym-134" vertex="1" connectable="0">
          <mxGeometry x="-0.2686" y="-1" relative="1" as="geometry">
            <mxPoint as="offset" />
          </mxGeometry>
        </mxCell>
        <mxCell id="I_Ao7Ynuwbd4D35Jehym-108" value="&lt;b&gt;Search_For_Purchase&lt;/b&gt;" style="swimlane;fontStyle=0;childLayout=stackLayout;horizontal=1;startSize=26;fillColor=none;horizontalStack=0;resizeParent=1;resizeParentMax=0;resizeLast=0;collapsible=1;marginBottom=0;whiteSpace=wrap;html=1;" parent="1" vertex="1">
          <mxGeometry x="1561" y="-310" width="240" height="52" as="geometry" />
        </mxCell>
        <mxCell id="I_Ao7Ynuwbd4D35Jehym-126" value="-Property_Price: Int" style="text;strokeColor=none;fillColor=none;align=left;verticalAlign=top;spacingLeft=4;spacingRight=4;overflow=hidden;rotatable=0;points=[[0,0.5],[1,0.5]];portConstraint=eastwest;whiteSpace=wrap;html=1;" parent="I_Ao7Ynuwbd4D35Jehym-108" vertex="1">
          <mxGeometry y="26" width="240" height="26" as="geometry" />
        </mxCell>
        <mxCell id="I_Ao7Ynuwbd4D35Jehym-137" style="edgeStyle=orthogonalEdgeStyle;rounded=0;orthogonalLoop=1;jettySize=auto;html=1;endArrow=diamond;endFill=1;endSize=12;" parent="1" source="I_Ao7Ynuwbd4D35Jehym-123" target="w0NGEqOYghttgbfUyrr0-106" edge="1">
          <mxGeometry relative="1" as="geometry" />
        </mxCell>
        <mxCell id="I_Ao7Ynuwbd4D35Jehym-138" value="0 .. *" style="edgeLabel;html=1;align=center;verticalAlign=middle;resizable=0;points=[];" parent="I_Ao7Ynuwbd4D35Jehym-137" vertex="1" connectable="0">
          <mxGeometry x="0.1823" y="1" relative="1" as="geometry">
            <mxPoint as="offset" />
          </mxGeometry>
        </mxCell>
        <mxCell id="I_Ao7Ynuwbd4D35Jehym-123" value="&lt;b&gt;Filters&lt;/b&gt;" style="swimlane;fontStyle=0;childLayout=stackLayout;horizontal=1;startSize=26;fillColor=none;horizontalStack=0;resizeParent=1;resizeParentMax=0;resizeLast=0;collapsible=1;marginBottom=0;whiteSpace=wrap;html=1;" parent="1" vertex="1">
          <mxGeometry x="1251" y="-375" width="240" height="182" as="geometry" />
        </mxCell>
        <mxCell id="I_Ao7Ynuwbd4D35Jehym-124" value="-Property_City: String" style="text;strokeColor=none;fillColor=none;align=left;verticalAlign=top;spacingLeft=4;spacingRight=4;overflow=hidden;rotatable=0;points=[[0,0.5],[1,0.5]];portConstraint=eastwest;whiteSpace=wrap;html=1;" parent="I_Ao7Ynuwbd4D35Jehym-123" vertex="1">
          <mxGeometry y="26" width="240" height="26" as="geometry" />
        </mxCell>
        <mxCell id="I_Ao7Ynuwbd4D35Jehym-125" value="-Property_Postal_Code: Int" style="text;strokeColor=none;fillColor=none;align=left;verticalAlign=top;spacingLeft=4;spacingRight=4;overflow=hidden;rotatable=0;points=[[0,0.5],[1,0.5]];portConstraint=eastwest;whiteSpace=wrap;html=1;" parent="I_Ao7Ynuwbd4D35Jehym-123" vertex="1">
          <mxGeometry y="52" width="240" height="26" as="geometry" />
        </mxCell>
        <mxCell id="I_Ao7Ynuwbd4D35Jehym-127" value="-Property_Size: Int" style="text;strokeColor=none;fillColor=none;align=left;verticalAlign=top;spacingLeft=4;spacingRight=4;overflow=hidden;rotatable=0;points=[[0,0.5],[1,0.5]];portConstraint=eastwest;whiteSpace=wrap;html=1;" parent="I_Ao7Ynuwbd4D35Jehym-123" vertex="1">
          <mxGeometry y="78" width="240" height="26" as="geometry" />
        </mxCell>
        <mxCell id="I_Ao7Ynuwbd4D35Jehym-128" value="-Property_Number_of_Rooms: Int" style="text;strokeColor=none;fillColor=none;align=left;verticalAlign=top;spacingLeft=4;spacingRight=4;overflow=hidden;rotatable=0;points=[[0,0.5],[1,0.5]];portConstraint=eastwest;whiteSpace=wrap;html=1;" parent="I_Ao7Ynuwbd4D35Jehym-123" vertex="1">
          <mxGeometry y="104" width="240" height="26" as="geometry" />
        </mxCell>
        <mxCell id="I_Ao7Ynuwbd4D35Jehym-129" value="-Property_Type: String" style="text;strokeColor=none;fillColor=none;align=left;verticalAlign=top;spacingLeft=4;spacingRight=4;overflow=hidden;rotatable=0;points=[[0,0.5],[1,0.5]];portConstraint=eastwest;whiteSpace=wrap;html=1;" parent="I_Ao7Ynuwbd4D35Jehym-123" vertex="1">
          <mxGeometry y="130" width="240" height="26" as="geometry" />
        </mxCell>
        <mxCell id="I_Ao7Ynuwbd4D35Jehym-139" value="-Verified_Seller: Boolean" style="text;strokeColor=none;fillColor=none;align=left;verticalAlign=top;spacingLeft=4;spacingRight=4;overflow=hidden;rotatable=0;points=[[0,0.5],[1,0.5]];portConstraint=eastwest;whiteSpace=wrap;html=1;" parent="I_Ao7Ynuwbd4D35Jehym-123" vertex="1">
          <mxGeometry y="156" width="240" height="26" as="geometry" />
        </mxCell>
        <mxCell id="I_Ao7Ynuwbd4D35Jehym-143" value="&lt;div&gt;&lt;i&gt;&amp;lt;&amp;lt;Interface&amp;gt;&amp;gt;&lt;/i&gt;&lt;/div&gt;&lt;i&gt;IVerification&lt;/i&gt;" style="swimlane;fontStyle=0;childLayout=stackLayout;horizontal=1;startSize=40;fillColor=none;horizontalStack=0;resizeParent=1;resizeParentMax=0;resizeLast=0;collapsible=1;marginBottom=0;whiteSpace=wrap;html=1;" parent="1" vertex="1">
          <mxGeometry x="550" y="87" width="240" height="66" as="geometry" />
        </mxCell>
        <mxCell id="I_Ao7Ynuwbd4D35Jehym-144" value="+Official_Documents(): Boolean" style="text;strokeColor=none;fillColor=none;align=left;verticalAlign=top;spacingLeft=4;spacingRight=4;overflow=hidden;rotatable=0;points=[[0,0.5],[1,0.5]];portConstraint=eastwest;whiteSpace=wrap;html=1;" parent="I_Ao7Ynuwbd4D35Jehym-143" vertex="1">
          <mxGeometry y="40" width="240" height="26" as="geometry" />
        </mxCell>
        <mxCell id="sYUlOtbSZ_AGxyexaWMe-8" style="edgeStyle=orthogonalEdgeStyle;rounded=0;orthogonalLoop=1;jettySize=auto;html=1;entryX=0.494;entryY=0.987;entryDx=0;entryDy=0;entryPerimeter=0;endArrow=diamond;endFill=1;endSize=12;" edge="1" parent="1" source="sYUlOtbSZ_AGxyexaWMe-5" target="sYUlOtbSZ_AGxyexaWMe-4">
          <mxGeometry relative="1" as="geometry">
            <mxPoint x="1781" y="542.4482758620688" as="targetPoint" />
          </mxGeometry>
        </mxCell>
        <mxCell id="sYUlOtbSZ_AGxyexaWMe-9" value="1 .. *" style="edgeLabel;html=1;align=center;verticalAlign=middle;resizable=0;points=[];" vertex="1" connectable="0" parent="sYUlOtbSZ_AGxyexaWMe-8">
          <mxGeometry x="-0.0929" y="1" relative="1" as="geometry">
            <mxPoint as="offset" />
          </mxGeometry>
        </mxCell>
        <mxCell id="sYUlOtbSZ_AGxyexaWMe-5" value="&lt;div&gt;Rating&lt;/div&gt;" style="swimlane;fontStyle=0;childLayout=stackLayout;horizontal=1;startSize=31;fillColor=none;horizontalStack=0;resizeParent=1;resizeParentMax=0;resizeLast=0;collapsible=1;marginBottom=0;whiteSpace=wrap;html=1;" vertex="1" parent="1">
          <mxGeometry x="1661" y="630" width="240" height="195" as="geometry" />
        </mxCell>
        <mxCell id="sYUlOtbSZ_AGxyexaWMe-6" value="-Like_ID: Int" style="text;strokeColor=none;fillColor=none;align=left;verticalAlign=top;spacingLeft=4;spacingRight=4;overflow=hidden;rotatable=0;points=[[0,0.5],[1,0.5]];portConstraint=eastwest;whiteSpace=wrap;html=1;" vertex="1" parent="sYUlOtbSZ_AGxyexaWMe-5">
          <mxGeometry y="31" width="240" height="26" as="geometry" />
        </mxCell>
        <mxCell id="sYUlOtbSZ_AGxyexaWMe-7" value="-Comment_ID: Int" style="text;strokeColor=none;fillColor=none;align=left;verticalAlign=top;spacingLeft=4;spacingRight=4;overflow=hidden;rotatable=0;points=[[0,0.5],[1,0.5]];portConstraint=eastwest;whiteSpace=wrap;html=1;" vertex="1" parent="sYUlOtbSZ_AGxyexaWMe-5">
          <mxGeometry y="57" width="240" height="26" as="geometry" />
        </mxCell>
        <mxCell id="sYUlOtbSZ_AGxyexaWMe-11" value="-Like_List: List" style="text;strokeColor=none;fillColor=none;align=left;verticalAlign=top;spacingLeft=4;spacingRight=4;overflow=hidden;rotatable=0;points=[[0,0.5],[1,0.5]];portConstraint=eastwest;whiteSpace=wrap;html=1;" vertex="1" parent="sYUlOtbSZ_AGxyexaWMe-5">
          <mxGeometry y="83" width="240" height="26" as="geometry" />
        </mxCell>
        <mxCell id="sYUlOtbSZ_AGxyexaWMe-12" value="-Comment: String" style="text;strokeColor=none;fillColor=none;align=left;verticalAlign=top;spacingLeft=4;spacingRight=4;overflow=hidden;rotatable=0;points=[[0,0.5],[1,0.5]];portConstraint=eastwest;whiteSpace=wrap;html=1;" vertex="1" parent="sYUlOtbSZ_AGxyexaWMe-5">
          <mxGeometry y="109" width="240" height="26" as="geometry" />
        </mxCell>
        <mxCell id="sYUlOtbSZ_AGxyexaWMe-10" value="" style="line;strokeWidth=1;fillColor=none;align=left;verticalAlign=middle;spacingTop=-1;spacingLeft=3;spacingRight=3;rotatable=0;labelPosition=right;points=[];portConstraint=eastwest;strokeColor=inherit;" vertex="1" parent="sYUlOtbSZ_AGxyexaWMe-5">
          <mxGeometry y="135" width="240" height="8" as="geometry" />
        </mxCell>
        <mxCell id="sYUlOtbSZ_AGxyexaWMe-13" value="+Add_Comment(Seller_ID): void" style="text;strokeColor=none;fillColor=none;align=left;verticalAlign=top;spacingLeft=4;spacingRight=4;overflow=hidden;rotatable=0;points=[[0,0.5],[1,0.5]];portConstraint=eastwest;whiteSpace=wrap;html=1;" vertex="1" parent="sYUlOtbSZ_AGxyexaWMe-5">
          <mxGeometry y="143" width="240" height="26" as="geometry" />
        </mxCell>
        <mxCell id="sYUlOtbSZ_AGxyexaWMe-14" value="+Add_Like(Seller_ID): void" style="text;strokeColor=none;fillColor=none;align=left;verticalAlign=top;spacingLeft=4;spacingRight=4;overflow=hidden;rotatable=0;points=[[0,0.5],[1,0.5]];portConstraint=eastwest;whiteSpace=wrap;html=1;" vertex="1" parent="sYUlOtbSZ_AGxyexaWMe-5">
          <mxGeometry y="169" width="240" height="26" as="geometry" />
        </mxCell>
      </root>
    </mxGraphModel>
  </diagram>
</mxfile>
